Roman_opsz6_wght700.ufo
<glyph name="numbersign" format="2">
  <advance width="1143"/>
  <unicode hex="0023"/>
  <outline>
    <contour>
      <point x="274" y="-194" type="curve" smooth="yes"/>
      <point x="301" y="-194"/>
      <point x="310" y="-169"/>
      <point x="313" y="-162" type="curve"/>
      <point x="402" y="82" type="line"/>
      <point x="616" y="82" type="line"/>
      <point x="604" y="50"/>
      <point x="554" y="-87"/>
      <point x="548" y="-102" type="curve"/>
      <point x="542" y="-120"/>
      <point x="532" y="-147"/>
      <point x="532" y="-154" type="curve" smooth="yes"/>
      <point x="532" y="-176"/>
      <point x="549" y="-194"/>
      <point x="572" y="-194" type="curve" smooth="yes"/>
      <point x="599" y="-194"/>
      <point x="608" y="-169"/>
      <point x="611" y="-162" type="curve"/>
      <point x="700" y="82" type="line"/>
      <point x="1007" y="82" type="line" smooth="yes"/>
      <point x="1018" y="82"/>
      <point x="1058" y="82"/>
      <point x="1058" y="121" type="curve" smooth="yes"/>
      <point x="1058" y="161"/>
      <point x="1018" y="161"/>
      <point x="1007" y="161" type="curve" smooth="yes"/>
      <point x="730" y="161" type="line"/>
      <point x="795" y="340" type="line"/>
      <point x="1007" y="340" type="line" smooth="yes"/>
      <point x="1019" y="340"/>
      <point x="1058" y="340"/>
      <point x="1058" y="380" type="curve" smooth="yes"/>
      <point x="1058" y="419"/>
      <point x="1018" y="419"/>
      <point x="1007" y="419" type="curve" smooth="yes"/>
      <point x="825" y="419" type="line"/>
      <point x="902" y="632" type="line" smooth="yes"/>
      <point x="908" y="647"/>
      <point x="908" y="649"/>
      <point x="908" y="654" type="curve" smooth="yes"/>
      <point x="908" y="676"/>
      <point x="891" y="694"/>
      <point x="868" y="694" type="curve" smooth="yes"/>
      <point x="841" y="694"/>
      <point x="832" y="669"/>
      <point x="829" y="662" type="curve"/>
      <point x="741" y="419" type="line"/>
      <point x="527" y="419" type="line"/>
      <point x="604" y="632" type="line" smooth="yes"/>
      <point x="610" y="647"/>
      <point x="610" y="649"/>
      <point x="610" y="654" type="curve" smooth="yes"/>
      <point x="610" y="676"/>
      <point x="593" y="694"/>
      <point x="570" y="694" type="curve" smooth="yes"/>
      <point x="543" y="694"/>
      <point x="534" y="669"/>
      <point x="531" y="662" type="curve"/>
      <point x="443" y="419" type="line"/>
      <point x="135" y="419" type="line" smooth="yes"/>
      <point x="124" y="419"/>
      <point x="84" y="419"/>
      <point x="84" y="380" type="curve" smooth="yes"/>
      <point x="84" y="340"/>
      <point x="124" y="340"/>
      <point x="135" y="340" type="curve" smooth="yes"/>
      <point x="413" y="340" type="line"/>
      <point x="348" y="161" type="line"/>
      <point x="135" y="161" type="line" smooth="yes"/>
      <point x="123" y="161"/>
      <point x="84" y="161"/>
      <point x="84" y="121" type="curve" smooth="yes"/>
      <point x="84" y="82"/>
      <point x="124" y="82"/>
      <point x="135" y="82" type="curve" smooth="yes"/>
      <point x="318" y="82" type="line"/>
      <point x="306" y="50"/>
      <point x="256" y="-87"/>
      <point x="250" y="-102" type="curve"/>
      <point x="244" y="-120"/>
      <point x="234" y="-147"/>
      <point x="234" y="-154" type="curve" smooth="yes"/>
      <point x="234" y="-176"/>
      <point x="251" y="-194"/>
    </contour>
    <contour>
      <point x="432" y="161" type="line"/>
      <point x="497" y="340" type="line"/>
      <point x="711" y="340" type="line"/>
      <point x="646" y="161" type="line"/>
    </contour>
  </outline>
</glyph>
<glyph name="percent" format="2">
  <advance width="1143"/>
  <unicode hex="0025"/>
  <outline>
    <contour>
      <point x="931" y="678" type="line" smooth="yes"/>
      <point x="942" y="690"/>
      <point x="946" y="701"/>
      <point x="946" y="710" type="curve" smooth="yes"/>
      <point x="946" y="734"/>
      <point x="927" y="750"/>
      <point x="907" y="750" type="curve" smooth="yes"/>
      <point x="890" y="750"/>
      <point x="884" y="743"/>
      <point x="871" y="731" type="curve" smooth="yes"/>
      <point x="806" y="666"/>
      <point x="727" y="642"/>
      <point x="646" y="642" type="curve" smooth="yes"/>
      <point x="572" y="642"/>
      <point x="479" y="664"/>
      <point x="382" y="721" type="curve" smooth="yes"/>
      <point x="361" y="733"/>
      <point x="332" y="750"/>
      <point x="282" y="750" type="curve" smooth="yes"/>
      <point x="170" y="750"/>
      <point x="84" y="674"/>
      <point x="84" y="549" type="curve" smooth="yes"/>
      <point x="84" y="419"/>
      <point x="173" y="347"/>
      <point x="282" y="347" type="curve" smooth="yes"/>
      <point x="382" y="347"/>
      <point x="459" y="419"/>
      <point x="459" y="549" type="curve" smooth="yes"/>
      <point x="459" y="581"/>
      <point x="454" y="611"/>
      <point x="446" y="633" type="curve"/>
      <point x="493" y="614"/>
      <point x="566" y="592"/>
      <point x="647" y="592" type="curve" smooth="yes"/>
      <point x="667" y="592"/>
      <point x="702" y="592"/>
      <point x="756" y="606" type="curve"/>
      <point x="211" y="16" type="line" smooth="yes"/>
      <point x="200" y="4"/>
      <point x="196" y="-7"/>
      <point x="196" y="-16" type="curve" smooth="yes"/>
      <point x="196" y="-38"/>
      <point x="214" y="-56"/>
      <point x="236" y="-56" type="curve" smooth="yes"/>
      <point x="249" y="-56"/>
      <point x="259" y="-50"/>
      <point x="268" y="-40" type="curve" smooth="yes"/>
    </contour>
    <contour>
      <point x="285" y="398" type="curve" smooth="yes"/>
      <point x="204" y="398"/>
      <point x="204" y="490"/>
      <point x="204" y="548" type="curve" smooth="yes"/>
      <point x="204" y="608"/>
      <point x="204" y="699"/>
      <point x="285" y="699" type="curve" smooth="yes"/>
      <point x="333" y="699"/>
      <point x="388" y="658"/>
      <point x="388" y="549" type="curve" smooth="yes"/>
      <point x="388" y="433"/>
      <point x="329" y="398"/>
    </contour>
    <contour>
      <point x="1058" y="145" type="curve" smooth="yes"/>
      <point x="1058" y="275"/>
      <point x="980" y="347"/>
      <point x="881" y="347" type="curve" smooth="yes"/>
      <point x="769" y="347"/>
      <point x="683" y="271"/>
      <point x="683" y="146" type="curve" smooth="yes"/>
      <point x="683" y="16"/>
      <point x="772" y="-56"/>
      <point x="881" y="-56" type="curve" smooth="yes"/>
      <point x="984" y="-56"/>
      <point x="1058" y="20"/>
    </contour>
    <contour>
      <point x="884" y="-5" type="curve" smooth="yes"/>
      <point x="803" y="-5"/>
      <point x="803" y="87"/>
      <point x="803" y="145" type="curve" smooth="yes"/>
      <point x="803" y="205"/>
      <point x="803" y="296"/>
      <point x="884" y="296" type="curve" smooth="yes"/>
      <point x="932" y="296"/>
      <point x="987" y="255"/>
      <point x="987" y="146" type="curve" smooth="yes"/>
      <point x="987" y="30"/>
      <point x="928" y="-5"/>
    </contour>
  </outline>
</glyph>
<glyph name="comma" format="2">
  <advance width="393"/>
  <unicode hex="002C"/>
  <outline>
    <contour>
      <point x="113" y="84" type="curve" smooth="yes"/>
      <point x="113" y="38"/>
      <point x="146" y="0"/>
      <point x="197" y="0" type="curve" smooth="yes"/>
      <point x="218" y="0"/>
      <point x="236" y="8"/>
      <point x="242" y="12" type="curve"/>
      <point x="237" y="-39"/>
      <point x="214" y="-99"/>
      <point x="147" y="-148" type="curve"/>
      <point x="140" y="-152"/>
      <point x="135" y="-156"/>
      <point x="135" y="-167" type="curve" smooth="yes"/>
      <point x="135" y="-179"/>
      <point x="150" y="-194"/>
      <point x="162" y="-194" type="curve" smooth="yes"/>
      <point x="182" y="-194"/>
      <point x="295" y="-107"/>
      <point x="295" y="36" type="curve" smooth="yes"/>
      <point x="295" y="110"/>
      <point x="256" y="167"/>
      <point x="196" y="167" type="curve" smooth="yes"/>
      <point x="146" y="167"/>
      <point x="113" y="129"/>
    </contour>
  </outline>
</glyph>
<glyph name="hyphen" format="2">
  <advance width="468"/>
  <unicode hex="002D"/>
  <outline>
    <contour>
      <point x="383" y="165" type="line"/>
      <point x="383" y="280" type="line"/>
      <point x="24" y="280" type="line"/>
      <point x="24" y="165" type="line"/>
    </contour>
  </outline>
</glyph>
<glyph name="slash" format="2">
  <advance width="693"/>
  <unicode hex="002F"/>
  <outline>
    <contour>
      <point x="600" y="686" type="line" smooth="yes"/>
      <point x="607" y="701"/>
      <point x="608" y="702"/>
      <point x="608" y="710" type="curve" smooth="yes"/>
      <point x="608" y="734"/>
      <point x="589" y="750"/>
      <point x="569" y="750" type="curve" smooth="yes"/>
      <point x="543" y="750"/>
      <point x="534" y="730"/>
      <point x="529" y="720" type="curve" smooth="yes"/>
      <point x="92" y="-186" type="line" smooth="yes"/>
      <point x="85" y="-201"/>
      <point x="84" y="-202"/>
      <point x="84" y="-210" type="curve" smooth="yes"/>
      <point x="84" y="-234"/>
      <point x="103" y="-250"/>
      <point x="123" y="-250" type="curve" smooth="yes"/>
      <point x="149" y="-250"/>
      <point x="158" y="-230"/>
      <point x="163" y="-220" type="curve" smooth="yes"/>
    </contour>
  </outline>
</glyph>
<glyph name="zero" format="2">
  <advance width="693"/>
  <unicode hex="0030"/>
  <outline>
    <contour>
      <point x="346" y="-14" type="curve" smooth="yes"/>
      <point x="446.3496" y="-14.0"/>
      <point x="511.69239642400004" y="14.303373104000006"/>
      <point x="554.1022507218746" y="57.22640966880885" type="curve" smooth="yes"/>
      <point x="621.57387196" y="125.51447416320003"/>
      <point x="631.0" y="230.80632000000003"/>
      <point x="631" y="318" type="curve" smooth="yes"/>
      <point x="631.0" y="407.4312"/>
      <point x="621.3574224375" y="516.91896133"/>
      <point x="551.7686758328988" y="587.057137861709" type="curve" smooth="yes"/>
      <point x="509.30727091250003" y="629.8537919099999"/>
      <point x="445" y="658"/>
      <point x="346" y="658" type="curve" smooth="yes"/>
      <point x="247" y="658"/>
      <point x="182.22203529249998" y="629.566585705"/>
      <point x="139.79283759502414" y="586.5220296208632" type="curve" smooth="yes"/>
      <point x="70.25687446000002" y="515.97757374"/>
      <point x="61" y="406"/>
      <point x="61" y="318" type="curve" smooth="yes"/>
      <point x="61" y="230"/>
      <point x="70.8031731616" y="124.56649464959999"/>
      <point x="138.33432228352365" y="56.677586409205254" type="curve" smooth="yes"/>
      <point x="180.7815933328" y="14.005442860799981"/>
      <point x="246.03636" y="-14.000000000000007"/>
    </contour>
    <contour>
      <point x="346" y="37" type="curve" smooth="yes"/>
      <point x="312" y="37"/>
      <point x="231" y="47"/>
      <point x="215" y="139" type="curve" smooth="yes"/>
      <point x="205" y="193"/>
      <point x="205" y="263"/>
      <point x="205" y="331" type="curve" smooth="yes"/>
      <point x="205" y="394"/>
      <point x="205" y="473"/>
      <point x="216" y="520" type="curve" smooth="yes"/>
      <point x="235" y="594"/>
      <point x="305" y="607"/>
      <point x="346" y="607" type="curve" smooth="yes"/>
      <point x="382" y="607"/>
      <point x="461" y="597"/>
      <point x="477" y="513" type="curve" smooth="yes"/>
      <point x="487" y="461"/>
      <point x="487" y="397"/>
      <point x="487" y="331" type="curve" smooth="yes"/>
      <point x="487" y="270"/>
      <point x="487" y="193"/>
      <point x="477" y="139" type="curve" smooth="yes"/>
      <point x="460" y="48"/>
      <point x="384" y="37"/>
    </contour>
  </outline>
</glyph>
<glyph name="I" format="2">
  <advance width="506"/>
  <unicode hex="0049"/>
  <outline>
    <contour>
      <point x="64" y="0" type="line"/>
      <point x="119" y="4"/>
      <point x="197" y="4"/>
      <point x="253" y="4" type="curve" smooth="yes"/>
      <point x="309" y="4"/>
      <point x="386" y="4"/>
      <point x="441" y="0" type="curve"/>
      <point x="441" y="60" type="line"/>
      <point x="329" y="60" type="line"/>
      <point x="329" y="60" type="line"/>
      <point x="329" y="626" type="line"/>
      <point x="329" y="626" type="line"/>
      <point x="441" y="626" type="line"/>
      <point x="441" y="686" type="line"/>
      <point x="386" y="682"/>
      <point x="309" y="682"/>
      <point x="253" y="682" type="curve" smooth="yes"/>
      <point x="197" y="682"/>
      <point x="119" y="682"/>
      <point x="64" y="686" type="curve"/>
      <point x="64" y="626" type="line"/>
      <point x="176" y="626" type="line"/>
      <point x="176" y="626" type="line"/>
      <point x="176" y="60" type="line"/>
      <point x="176" y="60" type="line"/>
      <point x="64" y="60" type="line"/>
    </contour>
  </outline>
</glyph>
<glyph name="J" format="2">
  <advance width="711"/>
  <unicode hex="004A"/>
  <outline>
    <contour>
      <point x="274" y="-14" type="curve" smooth="yes"/>
      <point x="433" y="-14"/>
      <point x="532" y="47"/>
      <point x="532" y="151" type="curve" smooth="yes"/>
      <point x="532" y="626" type="line"/>
      <point x="532" y="626" type="line"/>
      <point x="612" y="626" type="line"/>
      <point x="612" y="686" type="line"/>
      <point x="582" y="685"/>
      <point x="505" y="682"/>
      <point x="452" y="682" type="curve" smooth="yes"/>
      <point x="400" y="682"/>
      <point x="295" y="682"/>
      <point x="248" y="686" type="curve"/>
      <point x="248" y="626" type="line"/>
      <point x="386" y="626" type="line"/>
      <point x="386" y="626" type="line"/>
      <point x="386" y="151" type="line" smooth="yes"/>
      <point x="386" y="76"/>
      <point x="347" y="37"/>
      <point x="271" y="37" type="curve" smooth="yes"/>
      <point x="266" y="37"/>
      <point x="224" y="37"/>
      <point x="188" y="51" type="curve"/>
      <point x="192" y="54"/>
      <point x="215" y="76"/>
      <point x="215" y="114" type="curve" smooth="yes"/>
      <point x="215" y="172"/>
      <point x="169" y="198"/>
      <point x="132" y="198" type="curve" smooth="yes"/>
      <point x="91" y="198"/>
      <point x="48" y="170"/>
      <point x="48" y="114" type="curve" smooth="yes"/>
      <point x="48" y="-14"/>
      <point x="237" y="-14"/>
    </contour>
  </outline>
</glyph>
<glyph name="L" format="2">
  <advance width="825"/>
  <unicode hex="004C"/>
  <outline>
    <contour>
      <point x="758" y="254" type="line"/>
      <point x="687" y="254" type="line"/>
      <point x="669" y="127"/>
      <point x="603" y="60"/>
      <point x="461" y="60" type="curve" smooth="yes"/>
      <point x="330" y="60" type="line"/>
      <point x="330" y="60" type="line"/>
      <point x="330" y="626" type="line"/>
      <point x="330" y="626" type="line"/>
      <point x="463" y="626" type="line"/>
      <point x="463" y="686" type="line"/>
      <point x="415" y="682"/>
      <point x="310" y="682"/>
      <point x="257" y="682" type="curve" smooth="yes"/>
      <point x="251" y="682"/>
      <point x="116" y="683"/>
      <point x="71" y="686" type="curve"/>
      <point x="71" y="626" type="line"/>
      <point x="177" y="626" type="line"/>
      <point x="177" y="626" type="line"/>
      <point x="177" y="60" type="line"/>
      <point x="177" y="60" type="line"/>
      <point x="71" y="60" type="line"/>
      <point x="71" y="0" type="line"/>
      <point x="722" y="0" type="line"/>
    </contour>
  </outline>
</glyph>
<glyph name="R" format="2">
  <advance width="1019"/>
  <unicode hex="0052"/>
  <outline>
    <contour>
      <point x="672" y="340" type="curve"/>
      <point x="759" y="364"/>
      <point x="839" y="418"/>
      <point x="839" y="498" type="curve" smooth="yes"/>
      <point x="839" y="607"/>
      <point x="701" y="686"/>
      <point x="496" y="686" type="curve" smooth="yes"/>
      <point x="73" y="686" type="line"/>
      <point x="73" y="626" type="line"/>
      <point x="179" y="626" type="line"/>
      <point x="179" y="626" type="line"/>
      <point x="179" y="60" type="line"/>
      <point x="179" y="60" type="line"/>
      <point x="73" y="60" type="line"/>
      <point x="73" y="0" type="line"/>
      <point x="133" y="3"/>
      <point x="192" y="4"/>
      <point x="252" y="4" type="curve" smooth="yes"/>
      <point x="310" y="4"/>
      <point x="374" y="3"/>
      <point x="431" y="0" type="curve"/>
      <point x="431" y="60" type="line"/>
      <point x="325" y="60" type="line"/>
      <point x="325" y="60" type="line"/>
      <point x="325" y="318" type="line"/>
      <point x="475" y="318" type="line" smooth="yes"/>
      <point x="516" y="318"/>
      <point x="554" y="308"/>
      <point x="580" y="290" type="curve" smooth="yes"/>
      <point x="622" y="259"/>
      <point x="622" y="236"/>
      <point x="622" y="175" type="curve" smooth="yes"/>
      <point x="622" y="99"/>
      <point x="622" y="53"/>
      <point x="686" y="17" type="curve" smooth="yes"/>
      <point x="721" y="-2"/>
      <point x="778" y="-14"/>
      <point x="861" y="-14" type="curve" smooth="yes"/>
      <point x="986" y="-14"/>
      <point x="1004" y="76"/>
      <point x="1004" y="100" type="curve" smooth="yes"/>
      <point x="1004" y="126"/>
      <point x="985" y="126"/>
      <point x="968" y="126" type="curve" smooth="yes"/>
      <point x="954" y="126"/>
      <point x="935" y="126"/>
      <point x="933" y="105" type="curve" smooth="yes"/>
      <point x="928" y="42"/>
      <point x="886" y="37"/>
      <point x="872" y="37" type="curve" smooth="yes"/>
      <point x="807" y="37"/>
      <point x="792" y="94"/>
      <point x="786" y="140" type="curve" smooth="yes"/>
      <point x="784" y="155"/>
      <point x="782" y="169"/>
      <point x="781" y="184" type="curve" smooth="yes"/>
      <point x="775" y="246"/>
      <point x="762" y="301"/>
    </contour>
    <contour>
      <point x="325" y="369" type="line"/>
      <point x="325" y="626" type="line"/>
      <point x="325" y="626" type="line"/>
      <point x="487" y="626" type="line" smooth="yes"/>
      <point x="646" y="626"/>
      <point x="672" y="570"/>
      <point x="672" y="498" type="curve" smooth="yes"/>
      <point x="672" y="432"/>
      <point x="652" y="369"/>
      <point x="486" y="369" type="curve" smooth="yes"/>
    </contour>
  </outline>
</glyph>
<glyph name="S" format="2">
  <advance width="768"/>
  <unicode hex="0053"/>
  <outline>
    <contour>
      <point x="84" y="498" type="curve" smooth="yes"/>
      <point x="84" y="426"/>
      <point x="127" y="385"/>
      <point x="146" y="367" type="curve" smooth="yes"/>
      <point x="197" y="318"/>
      <point x="261" y="306"/>
      <point x="345" y="291" type="curve" smooth="yes"/>
      <point x="364" y="287"/>
      <point x="462" y="269"/>
      <point x="471" y="267" type="curve" smooth="yes"/>
      <point x="519" y="255"/>
      <point x="581" y="222"/>
      <point x="581" y="159" type="curve" smooth="yes"/>
      <point x="581" y="131"/>
      <point x="567" y="46"/>
      <point x="416" y="46" type="curve" smooth="yes"/>
      <point x="273" y="46"/>
      <point x="161" y="82"/>
      <point x="155" y="199" type="curve" smooth="yes"/>
      <point x="154" y="221"/>
      <point x="153" y="228"/>
      <point x="120" y="228" type="curve" smooth="yes"/>
      <point x="90" y="228"/>
      <point x="84" y="225"/>
      <point x="84" y="193" type="curve" smooth="yes"/>
      <point x="84" y="20" type="line" smooth="yes"/>
      <point x="84" y="1"/>
      <point x="84" y="-14"/>
      <point x="111" y="-14" type="curve" smooth="yes"/>
      <point x="125" y="-14"/>
      <point x="127" y="-14"/>
      <point x="149" y="8" type="curve" smooth="yes"/>
      <point x="159" y="18"/>
      <point x="169" y="27"/>
      <point x="179" y="36" type="curve"/>
      <point x="205" y="21"/>
      <point x="269" y="-14"/>
      <point x="416" y="-14" type="curve" smooth="yes"/>
      <point x="624" y="-14"/>
      <point x="683" y="113"/>
      <point x="683" y="201" type="curve" smooth="yes"/>
      <point x="683.0" y="256.9657"/>
      <point x="659.77588055" y="302.97820595"/>
      <point x="625.082120522751" y="337.89327654380304" type="curve" smooth="yes"/>
      <point x="586.00645672" y="377.21820296000004"/>
      <point x="532.3809" y="402.46540000000005"/>
      <point x="481" y="412" type="curve" smooth="yes"/>
      <point x="302" y="445" type="line" smooth="yes"/>
      <point x="235" y="457"/>
      <point x="186" y="494"/>
      <point x="186" y="543" type="curve" smooth="yes"/>
      <point x="186" y="586"/>
      <point x="222" y="645"/>
      <point x="347" y="645" type="curve" smooth="yes"/>
      <point x="464" y="645"/>
      <point x="553" y="600"/>
      <point x="574" y="483" type="curve" smooth="yes"/>
      <point x="578" y="459"/>
      <point x="585" y="458"/>
      <point x="610" y="458" type="curve" smooth="yes"/>
      <point x="639" y="458"/>
      <point x="646" y="460"/>
      <point x="646" y="492" type="curve" smooth="yes"/>
      <point x="646" y="666" type="line" smooth="yes"/>
      <point x="646" y="685"/>
      <point x="646" y="700"/>
      <point x="619" y="700" type="curve" smooth="yes"/>
      <point x="610" y="700"/>
      <point x="603" y="700"/>
      <point x="592" y="689" type="curve" smooth="yes"/>
      <point x="556" y="654"/>
      <point x="550" y="648"/>
      <point x="548" y="648" type="curve" smooth="yes"/>
      <point x="541" y="648"/>
      <point x="488" y="700"/>
      <point x="347" y="700" type="curve" smooth="yes"/>
      <point x="155" y="700"/>
      <point x="84" y="592"/>
    </contour>
  </outline>
</glyph>
<glyph name="T" format="2">
  <advance width="957"/>
  <unicode hex="0054"/>
  <outline>
    <contour>
      <point x="872" y="671" type="line"/>
      <point x="83" y="671" type="line"/>
      <point x="58" y="444" type="line"/>
      <point x="129" y="444" type="line"/>
      <point x="140" y="554"/>
      <point x="165" y="611"/>
      <point x="298" y="611" type="curve" smooth="yes"/>
      <point x="401" y="611" type="line"/>
      <point x="401" y="60" type="line"/>
      <point x="250" y="60" type="line"/>
      <point x="250" y="0" type="line"/>
      <point x="299" y="4"/>
      <point x="422" y="4"/>
      <point x="477" y="4" type="curve" smooth="yes"/>
      <point x="532" y="4"/>
      <point x="656" y="4"/>
      <point x="705" y="0" type="curve"/>
      <point x="705" y="60" type="line"/>
      <point x="554" y="60" type="line"/>
      <point x="554" y="611" type="line"/>
      <point x="657" y="611" type="line" smooth="yes"/>
      <point x="790" y="611"/>
      <point x="815" y="554"/>
      <point x="826" y="444" type="curve"/>
      <point x="897" y="444" type="line"/>
    </contour>
  </outline>
</glyph>
<glyph name="W" format="2">
  <advance width="1403"/>
  <unicode hex="0057"/>
  <outline>
    <contour>
      <point x="487" y="146" type="line"/>
      <point x="285" y="626" type="line"/>
      <point x="285" y="626" type="line"/>
      <point x="374" y="626" type="line"/>
      <point x="374" y="686" type="line"/>
      <point x="321" y="683"/>
      <point x="249" y="682"/>
      <point x="195" y="682" type="curve" smooth="yes"/>
      <point x="146" y="682"/>
      <point x="68" y="685"/>
      <point x="39" y="686" type="curve"/>
      <point x="39" y="626" type="line"/>
      <point x="128" y="626" type="line"/>
      <point x="128" y="626" type="line"/>
      <point x="384" y="15" type="line" smooth="yes"/>
      <point x="396" y="-14"/>
      <point x="411" y="-14"/>
      <point x="447" y="-14" type="curve" smooth="yes"/>
      <point x="496" y="-14"/>
      <point x="499" y="-7"/>
      <point x="509" y="16" type="curve" smooth="yes"/>
      <point x="701" y="471" type="line"/>
      <point x="892" y="16" type="line" smooth="yes"/>
      <point x="905" y="-14"/>
      <point x="919" y="-14"/>
      <point x="956" y="-14" type="curve" smooth="yes"/>
      <point x="990" y="-14"/>
      <point x="1006" y="-14"/>
      <point x="1018" y="15" type="curve" smooth="yes"/>
      <point x="1268" y="609" type="line" smooth="yes"/>
      <point x="1274" y="622"/>
      <point x="1275" y="625"/>
      <point x="1302" y="625" type="curve" smooth="yes"/>
      <point x="1363" y="626" type="line"/>
      <point x="1363" y="686" type="line"/>
      <point x="1324" y="683"/>
      <point x="1286" y="682"/>
      <point x="1247" y="682" type="curve" smooth="yes"/>
      <point x="1205" y="682"/>
      <point x="1114" y="685"/>
      <point x="1098" y="686" type="curve"/>
      <point x="1098" y="626" type="line"/>
      <point x="1133" y="626"/>
      <point x="1194" y="626"/>
      <point x="1194" y="619" type="curve" smooth="yes"/>
      <point x="1194" y="617"/>
      <point x="1192" y="613"/>
      <point x="1190" y="608" type="curve" smooth="yes"/>
      <point x="996" y="146" type="line"/>
      <point x="794" y="626" type="line"/>
      <point x="794" y="626" type="line"/>
      <point x="883" y="626" type="line"/>
      <point x="883" y="686" type="line"/>
      <point x="830" y="682"/>
      <point x="757" y="682"/>
      <point x="703" y="682" type="curve" smooth="yes"/>
      <point x="652" y="682"/>
      <point x="568" y="685"/>
      <point x="548" y="686" type="curve"/>
      <point x="548" y="626" type="line"/>
      <point x="636" y="626" type="line"/>
      <point x="636" y="626" type="line"/>
      <point x="662" y="563" type="line"/>
    </contour>
  </outline>
</glyph>
<glyph name="grave" format="2">
  <advance width="693"/>
  <unicode hex="0060"/>
  <outline>
    <contour>
      <point x="368" y="499" type="line"/>
      <point x="405" y="559" type="line"/>
      <point x="263" y="680" type="line" smooth="yes"/>
      <point x="252" y="690"/>
      <point x="237" y="702"/>
      <point x="214" y="702" type="curve" smooth="yes"/>
      <point x="175" y="702"/>
      <point x="148" y="663"/>
      <point x="148" y="631" type="curve" smooth="yes"/>
      <point x="148" y="592"/>
      <point x="180" y="578"/>
      <point x="195" y="572" type="curve" smooth="yes"/>
    </contour>
  </outline>
</glyph>
<glyph name="b" format="2">
  <advance width="768"/>
  <unicode hex="0062"/>
  <outline>
    <contour>
      <point x="135" y="0" type="line"/>
      <point x="206" y="0" type="line"/>
      <point x="218" y="18"/>
      <point x="236" y="44"/>
      <point x="244" y="54" type="curve"/>
      <point x="294" y="12"/>
      <point x="353" y="-7"/>
      <point x="418" y="-7" type="curve" smooth="yes"/>
      <point x="610" y="-7"/>
      <point x="713" y="98"/>
      <point x="713" y="223" type="curve" smooth="yes"/>
      <point x="713" y="337"/>
      <point x="626" y="451"/>
      <point x="433" y="451" type="curve" smooth="yes"/>
      <point x="329" y="451"/>
      <point x="264" y="411"/>
      <point x="258" y="407" type="curve"/>
      <point x="258" y="694" type="line"/>
      <point x="66" y="686" type="line"/>
      <point x="66" y="626" type="line"/>
      <point x="128" y="626"/>
      <point x="135" y="626"/>
      <point x="135" y="587" type="curve" smooth="yes"/>
    </contour>
    <contour>
      <point x="408" y="44" type="curve" smooth="yes"/>
      <point x="324" y="44"/>
      <point x="279" y="100"/>
      <point x="265" y="121" type="curve"/>
      <point x="265" y="121" type="line"/>
      <point x="265" y="335" type="line"/>
      <point x="265" y="335" type="line"/>
      <point x="284" y="359"/>
      <point x="339" y="400"/>
      <point x="420" y="400" type="curve" smooth="yes"/>
      <point x="472.9993" y="400.0"/>
      <point x="507.14674899" y="384.94382369"/>
      <point x="529.1479503742569" y="362.97720406443295" type="curve" smooth="yes"/>
      <point x="569.0" y="323.18779438"/>
      <point x="569.0" y="260.7251"/>
      <point x="569" y="224" type="curve" smooth="yes"/>
      <point x="569.0" y="188.52176"/>
      <point x="569.0" y="125.75016065119999"/>
      <point x="528.0599850591759" y="84.50807691408588" type="curve" smooth="yes"/>
      <point x="504.3789580124" y="60.65232351840001"/>
      <point x="467.00006" y="44.000000000000014"/>
    </contour>
  </outline>
</glyph>
<glyph name="c" format="2">
  <advance width="618"/>
  <unicode hex="0063"/>
  <outline>
    <contour>
      <point x="198" y="225" type="curve" smooth="yes"/>
      <point x="198" y="314"/>
      <point x="221" y="399"/>
      <point x="356" y="399" type="curve" smooth="yes"/>
      <point x="381" y="399"/>
      <point x="397" y="399"/>
      <point x="425" y="395" type="curve"/>
      <point x="416" y="382"/>
      <point x="412" y="366"/>
      <point x="412" y="350" type="curve" smooth="yes"/>
      <point x="412" y="305"/>
      <point x="448" y="278"/>
      <point x="484" y="278" type="curve" smooth="yes"/>
      <point x="517" y="278"/>
      <point x="556" y="302"/>
      <point x="556" y="351" type="curve" smooth="yes"/>
      <point x="556" y="453"/>
      <point x="418" y="455"/>
      <point x="353" y="455" type="curve" smooth="yes"/>
      <point x="109" y="455"/>
      <point x="54" y="308"/>
      <point x="54" y="222" type="curve" smooth="yes"/>
      <point x="54" y="110"/>
      <point x="140" y="-7"/>
      <point x="346" y="-7" type="curve" smooth="yes"/>
      <point x="531" y="-7"/>
      <point x="571.0" y="89.95188"/>
      <point x="571" y="113" type="curve" smooth="yes"/>
      <point x="571" y="134"/>
      <point x="551" y="134"/>
      <point x="535" y="134" type="curve" smooth="yes"/>
      <point x="516" y="134"/>
      <point x="508" y="134"/>
      <point x="502" y="121" type="curve" smooth="yes"/>
      <point x="491" y="100"/>
      <point x="467" y="49"/>
      <point x="370" y="49" type="curve" smooth="yes"/>
      <point x="217" y="49"/>
      <point x="198" y="157"/>
    </contour>
  </outline>
</glyph>
<glyph name="e" format="2">
  <advance width="634"/>
  <unicode hex="0065"/>
  <outline>
    <contour>
      <point x="191" y="204" type="curve"/>
      <point x="550" y="204" type="line" smooth="yes"/>
      <point x="571" y="204"/>
      <point x="586" y="204"/>
      <point x="586" y="235" type="curve" smooth="yes"/>
      <point x="586" y="333"/>
      <point x="537" y="455"/>
      <point x="335" y="455" type="curve" smooth="yes"/>
      <point x="129" y="455"/>
      <point x="46" y="335"/>
      <point x="46" y="226" type="curve" smooth="yes"/>
      <point x="46" y="111"/>
      <point x="137" y="-7"/>
      <point x="353" y="-7" type="curve" smooth="yes"/>
      <point x="534" y="-7"/>
      <point x="586.0" y="87.14329"/>
      <point x="586" y="113" type="curve" smooth="yes"/>
      <point x="586" y="136"/>
      <point x="564" y="136"/>
      <point x="550" y="136" type="curve" smooth="yes"/>
      <point x="534" y="136"/>
      <point x="524" y="136"/>
      <point x="517" y="123" type="curve" smooth="yes"/>
      <point x="508" y="104"/>
      <point x="479" y="49"/>
      <point x="372" y="49" type="curve" smooth="yes"/>
      <point x="302.49772" y="49.0"/>
      <point x="259.01839914780004" y="67.3042848243"/>
      <point x="232.13764415584706" y="94.17776690114198" type="curve" smooth="yes"/>
      <point x="201.7778059067" y="124.52939092689999"/>
      <point x="192.59117" y="165.81192"/>
    </contour>
    <contour>
      <point x="190" y="251" type="line"/>
      <point x="192" y="320"/>
      <point x="217" y="404"/>
      <point x="335" y="404" type="curve" smooth="yes"/>
      <point x="434" y="404"/>
      <point x="481" y="348"/>
      <point x="486" y="251" type="curve"/>
    </contour>
  </outline>
</glyph>
<glyph name="i" format="2">
  <advance width="393"/>
  <unicode hex="0069"/>
  <outline>
    <contour>
      <point x="149" y="60" type="line"/>
      <point x="80" y="60" type="line"/>
      <point x="80" y="60" type="line"/>
      <point x="80" y="0" type="line"/>
      <point x="102" y="1"/>
      <point x="172" y="4"/>
      <point x="210" y="4" type="curve" smooth="yes"/>
      <point x="231" y="4"/>
      <point x="300" y="2"/>
      <point x="335" y="0" type="curve"/>
      <point x="335" y="60" type="line"/>
      <point x="272" y="60" type="line"/>
      <point x="272" y="451" type="line"/>
      <point x="83" y="443" type="line"/>
      <point x="83" y="383" type="line"/>
      <point x="142" y="383"/>
      <point x="149" y="383"/>
      <point x="149" y="344" type="curve" smooth="yes"/>
    </contour>
    <contour>
      <point x="280" y="611" type="curve" smooth="yes"/>
      <point x="280" y="662"/>
      <point x="238" y="695"/>
      <point x="197" y="695" type="curve" smooth="yes"/>
      <point x="149" y="695"/>
      <point x="113" y="655"/>
      <point x="113" y="612" type="curve" smooth="yes"/>
      <point x="113" y="565"/>
      <point x="151" y="528"/>
      <point x="197" y="528" type="curve" smooth="yes"/>
      <point x="240" y="528"/>
      <point x="280" y="563"/>
    </contour>
  </outline>
</glyph>
<glyph name="j" format="2">
  <advance width="431"/>
  <unicode hex="006A"/>
  <outline>
    <contour>
      <point x="202" y="343" type="curve" smooth="yes"/>
      <point x="202" y="-35" type="line" smooth="yes"/>
      <point x="202" y="-106"/>
      <point x="165" y="-150"/>
      <point x="116" y="-150" type="curve" smooth="yes"/>
      <point x="108" y="-150"/>
      <point x="81" y="-148"/>
      <point x="81" y="-145" type="curve"/>
      <point x="81" y="-140"/>
      <point x="95.0" y="-128.12543"/>
      <point x="95" y="-99" type="curve" smooth="yes"/>
      <point x="95" y="-57"/>
      <point x="65" y="-27"/>
      <point x="23" y="-27" type="curve" smooth="yes"/>
      <point x="-19" y="-27"/>
      <point x="-49" y="-57"/>
      <point x="-49" y="-99" type="curve" smooth="yes"/>
      <point x="-49" y="-164"/>
      <point x="16" y="-201"/>
      <point x="114" y="-201" type="curve" smooth="yes"/>
      <point x="205" y="-201"/>
      <point x="325" y="-157"/>
      <point x="325" y="-36" type="curve" smooth="yes"/>
      <point x="325" y="451" type="line"/>
      <point x="126" y="443" type="line"/>
      <point x="126" y="383" type="line"/>
      <point x="200" y="383"/>
      <point x="202.0" y="378.2119"/>
    </contour>
    <contour>
      <point x="325" y="611" type="curve" smooth="yes"/>
      <point x="325" y="660"/>
      <point x="285" y="695"/>
      <point x="242" y="695" type="curve" smooth="yes"/>
      <point x="193" y="695"/>
      <point x="158" y="655"/>
      <point x="158" y="612" type="curve" smooth="yes"/>
      <point x="158" y="563"/>
      <point x="198" y="528"/>
      <point x="241" y="528" type="curve" smooth="yes"/>
      <point x="290" y="528"/>
      <point x="325" y="568"/>
    </contour>
  </outline>
</glyph>
<glyph name="k" format="2">
  <advance width="731"/>
  <unicode hex="006B"/>
  <outline>
    <contour>
      <point x="422" y="270" type="line"/>
      <point x="573" y="373" type="line"/>
      <point x="585" y="381"/>
      <point x="588" y="384"/>
      <point x="668" y="384" type="curve"/>
      <point x="668" y="444" type="line"/>
      <point x="658" y="443"/>
      <point x="614" y="440"/>
      <point x="574" y="440" type="curve" smooth="yes"/>
      <point x="530" y="440"/>
      <point x="450" y="443"/>
      <point x="438" y="444" type="curve"/>
      <point x="438" y="384" type="line"/>
      <point x="449" y="384"/>
      <point x="452" y="383"/>
      <point x="457" y="380" type="curve"/>
      <point x="457" y="380" type="line"/>
      <point x="258" y="244" type="line"/>
      <point x="258" y="694" type="line"/>
      <point x="66" y="686" type="line"/>
      <point x="66" y="626" type="line"/>
      <point x="128" y="626"/>
      <point x="135" y="626"/>
      <point x="135" y="587" type="curve" smooth="yes"/>
      <point x="135" y="60" type="line"/>
      <point x="66" y="60" type="line"/>
      <point x="66" y="60" type="line"/>
      <point x="66" y="0" type="line"/>
      <point x="85" y="1"/>
      <point x="150" y="4"/>
      <point x="192" y="4" type="curve" smooth="yes"/>
      <point x="238" y="4"/>
      <point x="301" y="1"/>
      <point x="319" y="0" type="curve"/>
      <point x="319" y="60" type="line"/>
      <point x="319" y="60" type="line"/>
      <point x="250" y="60" type="line"/>
      <point x="250" y="152" type="line"/>
      <point x="331" y="208" type="line"/>
      <point x="473" y="64" type="line"/>
      <point x="473" y="64" type="line"/>
      <point x="467" y="60"/>
      <point x="465" y="60"/>
      <point x="453" y="60" type="curve"/>
      <point x="453" y="0" type="line"/>
      <point x="470" y="1"/>
      <point x="539" y="4"/>
      <point x="586" y="4" type="curve" smooth="yes"/>
      <point x="588" y="4"/>
      <point x="667" y="3"/>
      <point x="698" y="0" type="curve"/>
      <point x="698" y="60" type="line"/>
      <point x="629" y="60"/>
      <point x="627" y="60"/>
      <point x="617" y="71" type="curve" smooth="yes"/>
    </contour>
  </outline>
</glyph>
<glyph name="l" format="2">
  <advance width="393"/>
  <unicode hex="006C"/>
  <outline>
    <contour>
      <point x="272" y="694" type="line"/>
      <point x="80" y="686" type="line"/>
      <point x="80" y="626" type="line"/>
      <point x="142" y="626"/>
      <point x="149" y="626"/>
      <point x="149" y="587" type="curve" smooth="yes"/>
      <point x="149" y="60" type="line"/>
      <point x="80" y="60" type="line"/>
      <point x="80" y="60" type="line"/>
      <point x="80" y="0" type="line"/>
      <point x="102" y="1"/>
      <point x="172" y="4"/>
      <point x="210" y="4" type="curve" smooth="yes"/>
      <point x="248" y="4"/>
      <point x="317" y="2"/>
      <point x="341" y="0" type="curve"/>
      <point x="341" y="60" type="line"/>
      <point x="341" y="60" type="line"/>
      <point x="272" y="60" type="line"/>
    </contour>
  </outline>
</glyph>
<glyph name="o" format="2">
  <advance width="693"/>
  <unicode hex="006F"/>
  <outline>
    <contour>
      <point x="646" y="218" type="curve" smooth="yes"/>
      <point x="646" y="332"/>
      <point x="561" y="455"/>
      <point x="346" y="455" type="curve" smooth="yes"/>
      <point x="130" y="455"/>
      <point x="46" y="331"/>
      <point x="46" y="218" type="curve" smooth="yes"/>
      <point x="46" y="104"/>
      <point x="136" y="-7"/>
      <point x="346" y="-7" type="curve" smooth="yes"/>
      <point x="558" y="-7"/>
      <point x="646" y="105"/>
    </contour>
    <contour>
      <point x="346" y="49" type="curve" smooth="yes"/>
      <point x="190" y="49"/>
      <point x="190" y="146"/>
      <point x="190" y="230" type="curve" smooth="yes"/>
      <point x="190" y="309"/>
      <point x="190" y="404"/>
      <point x="346" y="404" type="curve" smooth="yes"/>
      <point x="502" y="404"/>
      <point x="502" y="309"/>
      <point x="502" y="230" type="curve" smooth="yes"/>
      <point x="502" y="146"/>
      <point x="502" y="49"/>
    </contour>
  </outline>
</glyph>
<glyph name="s" format="2">
  <advance width="551"/>
  <unicode hex="0073"/>
  <outline>
    <contour>
      <point x="495" y="142" type="curve" smooth="yes"/>
      <point x="495" y="202"/>
      <point x="455" y="234"/>
      <point x="442" y="244" type="curve" smooth="yes"/>
      <point x="396" y="280"/>
      <point x="349" y="286"/>
      <point x="263" y="299" type="curve" smooth="yes"/>
      <point x="197" y="308"/>
      <point x="138" y="317"/>
      <point x="138" y="355" type="curve" smooth="yes"/>
      <point x="138" y="372"/>
      <point x="150" y="409"/>
      <point x="268" y="409" type="curve" smooth="yes"/>
      <point x="339" y="409"/>
      <point x="386" y="395"/>
      <point x="390" y="347" type="curve" smooth="yes"/>
      <point x="392" y="321"/>
      <point x="402" y="321"/>
      <point x="425" y="321" type="curve" smooth="yes"/>
      <point x="454" y="321"/>
      <point x="461" y="323"/>
      <point x="461" y="355" type="curve" smooth="yes"/>
      <point x="461" y="421" type="line" smooth="yes"/>
      <point x="461" y="440"/>
      <point x="461" y="455"/>
      <point x="434" y="455" type="curve" smooth="yes"/>
      <point x="423" y="455"/>
      <point x="404" y="447"/>
      <point x="389" y="440" type="curve"/>
      <point x="389" y="440" type="line"/>
      <point x="348" y="455"/>
      <point x="296" y="455"/>
      <point x="273" y="455" type="curve" smooth="yes"/>
      <point x="144" y="455"/>
      <point x="54" y="416"/>
      <point x="54" y="320" type="curve" smooth="yes"/>
      <point x="54.0" y="278.07642"/>
      <point x="73.5270958608" y="249.46676899599998"/>
      <point x="102.62416991765261" y="229.44852832414836" type="curve" smooth="yes"/>
      <point x="149.1785805908" y="197.41996781080002"/>
      <point x="220.23118000000002" y="187.38456000000002"/>
      <point x="275" y="180" type="curve" smooth="yes"/>
      <point x="316.91179999999997" y="173.71323"/>
      <point x="366.6307065744" y="166.45057167820002"/>
      <point x="392.7991053295601" y="145.60081055020134" type="curve" smooth="yes"/>
      <point x="404.0928037716" y="136.6025177249"/>
      <point x="411.0" y="125.0735"/>
      <point x="411" y="110" type="curve" smooth="yes"/>
      <point x="411" y="44"/>
      <point x="304" y="44"/>
      <point x="279" y="44" type="curve" smooth="yes"/>
      <point x="213" y="44"/>
      <point x="154" y="60"/>
      <point x="127" y="133" type="curve" smooth="yes"/>
      <point x="119" y="154"/>
      <point x="118" y="156"/>
      <point x="90" y="156" type="curve" smooth="yes"/>
      <point x="60" y="156"/>
      <point x="54" y="153"/>
      <point x="54" y="121" type="curve" smooth="yes"/>
      <point x="54" y="27" type="line" smooth="yes"/>
      <point x="54" y="8"/>
      <point x="54" y="-7"/>
      <point x="81" y="-7" type="curve" smooth="yes"/>
      <point x="92" y="-7"/>
      <point x="94" y="-7"/>
      <point x="114" y="5" type="curve"/>
      <point x="120" y="8"/>
      <point x="135" y="18"/>
      <point x="141" y="21" type="curve"/>
      <point x="194" y="-7"/>
      <point x="255" y="-7"/>
      <point x="278" y="-7" type="curve" smooth="yes"/>
      <point x="314" y="-7"/>
      <point x="495" y="-7"/>
    </contour>
  </outline>
</glyph>
<glyph name="v" format="2">
  <advance width="731"/>
  <unicode hex="0076"/>
  <outline>
    <contour>
      <point x="111" y="384" type="line"/>
      <point x="298" y="22" type="line" smooth="yes"/>
      <point x="313" y="-7"/>
      <point x="327" y="-7"/>
      <point x="366" y="-7" type="curve" smooth="yes"/>
      <point x="400" y="-7"/>
      <point x="417" y="-7"/>
      <point x="431" y="21" type="curve" smooth="yes"/>
      <point x="611" y="369" type="line" smooth="yes"/>
      <point x="619" y="384"/>
      <point x="623" y="384"/>
      <point x="686" y="384" type="curve"/>
      <point x="686" y="444" type="line"/>
      <point x="681" y="444"/>
      <point x="632" y="440"/>
      <point x="595" y="440" type="curve" smooth="yes"/>
      <point x="591" y="440"/>
      <point x="518" y="441"/>
      <point x="491" y="444" type="curve"/>
      <point x="491" y="384" type="line"/>
      <point x="516" y="384"/>
      <point x="520" y="383"/>
      <point x="536" y="380" type="curve"/>
      <point x="536" y="380" type="line"/>
      <point x="394" y="104" type="line"/>
      <point x="249" y="384" type="line"/>
      <point x="249" y="384" type="line"/>
      <point x="296" y="384" type="line"/>
      <point x="296" y="444" type="line"/>
      <point x="287" y="444"/>
      <point x="215" y="440"/>
      <point x="163" y="440" type="curve" smooth="yes"/>
      <point x="125" y="440"/>
      <point x="62" y="443"/>
      <point x="43" y="444" type="curve"/>
      <point x="43" y="384" type="line"/>
    </contour>
  </outline>
</glyph>
<glyph name="acute" format="2">
  <advance width="693"/>
  <unicode hex="00B4"/>
  <outline>
    <contour>
      <point x="324" y="499" type="line"/>
      <point x="499" y="572" type="line" smooth="yes"/>
      <point x="527" y="584"/>
      <point x="544" y="604"/>
      <point x="544" y="631" type="curve" smooth="yes"/>
      <point x="544" y="662"/>
      <point x="517" y="702"/>
      <point x="478" y="702" type="curve" smooth="yes"/>
      <point x="465" y="702"/>
      <point x="451" y="699"/>
      <point x="434" y="684" type="curve" smooth="yes"/>
      <point x="287" y="559" type="line"/>
    </contour>
  </outline>
</glyph>
<glyph name="hungarumlaut" format="2">
  <advance width="693"/>
  <unicode hex="02DD"/>
  <outline>
    <contour>
      <point x="328" y="585" type="line" smooth="yes"/>
      <point x="344" y="597"/>
      <point x="360" y="614"/>
      <point x="360" y="639" type="curve" smooth="yes"/>
      <point x="360" y="673"/>
      <point x="326" y="709"/>
      <point x="287" y="709" type="curve" smooth="yes"/>
      <point x="252" y="709"/>
      <point x="238" y="682"/>
      <point x="231" y="669" type="curve" smooth="yes"/>
      <point x="169" y="552" type="line"/>
      <point x="224" y="506" type="line"/>
    </contour>
    <contour>
      <point x="394" y="552" type="line"/>
      <point x="449" y="506" type="line"/>
      <point x="553" y="585" type="line" smooth="yes"/>
      <point x="569" y="597"/>
      <point x="585" y="614"/>
      <point x="585" y="639" type="curve" smooth="yes"/>
      <point x="585" y="673"/>
      <point x="551" y="709"/>
      <point x="512" y="709" type="curve" smooth="yes"/>
      <point x="477" y="709"/>
      <point x="463" y="682"/>
      <point x="456" y="669" type="curve" smooth="yes"/>
    </contour>
  </outline>
</glyph>
<glyph name="Lambda" format="2">
  <advance width="953"/>
  <unicode hex="039B"/>
  <outline>
    <contour>
      <point x="545" y="676" type="line" smooth="yes"/>
      <point x="536" y="698"/>
      <point x="532" y="707"/>
      <point x="496" y="707" type="curve" smooth="yes"/>
      <point x="456" y="707" type="line" smooth="yes"/>
      <point x="437" y="707"/>
      <point x="419" y="707"/>
      <point x="407" y="679" type="curve" smooth="yes"/>
      <point x="153" y="77" type="line" smooth="yes"/>
      <point x="147" y="64"/>
      <point x="146" y="63"/>
      <point x="130" y="61" type="curve"/>
      <point x="58" y="60" type="line"/>
      <point x="58" y="0" type="line"/>
      <point x="80" y="2"/>
      <point x="145" y="4"/>
      <point x="180" y="4" type="curve" smooth="yes"/>
      <point x="221" y="4"/>
      <point x="314" y="0"/>
      <point x="325" y="0" type="curve"/>
      <point x="325" y="60" type="line"/>
      <point x="304" y="60" type="line" smooth="yes"/>
      <point x="267" y="60"/>
      <point x="265" y="60"/>
      <point x="238" y="64" type="curve"/>
      <point x="438" y="538" type="line"/>
      <point x="640" y="60" type="line"/>
      <point x="551" y="60" type="line"/>
      <point x="551" y="0" type="line"/>
      <point x="606" y="4"/>
      <point x="678" y="4"/>
      <point x="734" y="4" type="curve" smooth="yes"/>
      <point x="780" y="4"/>
      <point x="855" y="1"/>
      <point x="894" y="0" type="curve"/>
      <point x="894" y="60" type="line"/>
      <point x="806" y="60" type="line"/>
    </contour>
  </outline>
</glyph>
<glyph name="Xi" format="2">
  <advance width="918"/>
  <unicode hex="039E"/>
  <outline>
    <contour>
      <point x="833" y="671" type="line"/>
      <point x="84" y="671" type="line"/>
      <point x="73" y="475" type="line"/>
      <point x="144" y="475" type="line"/>
      <point x="145" y="492"/>
      <point x="148" y="536"/>
      <point x="162" y="544" type="curve"/>
      <point x="170" y="548"/>
      <point x="230" y="549"/>
      <point x="243" y="549" type="curve" smooth="yes"/>
      <point x="674" y="549" type="line" smooth="yes"/>
      <point x="686" y="549"/>
      <point x="747" y="549"/>
      <point x="755" y="543" type="curve"/>
      <point x="771" y="533"/>
      <point x="773" y="486"/>
      <point x="773" y="475" type="curve"/>
      <point x="844" y="475" type="line"/>
    </contour>
    <contour>
      <point x="76" y="0" type="line"/>
      <point x="841" y="0" type="line"/>
      <point x="852" y="205" type="line"/>
      <point x="781" y="205" type="line"/>
      <point x="780" y="192"/>
      <point x="778" y="136"/>
      <point x="763" y="128" type="curve" smooth="yes"/>
      <point x="751" y="122"/>
      <point x="691" y="122"/>
      <point x="676" y="122" type="curve" smooth="yes"/>
      <point x="241" y="122" type="line" smooth="yes"/>
      <point x="226" y="122"/>
      <point x="166" y="122"/>
      <point x="154" y="128" type="curve" smooth="yes"/>
      <point x="139" y="136"/>
      <point x="137" y="192"/>
      <point x="136" y="205" type="curve"/>
      <point x="65" y="205" type="line"/>
    </contour>
    <contour>
      <point x="721" y="453" type="line"/>
      <point x="650" y="453" type="line"/>
      <point x="650" y="410" type="line"/>
      <point x="267" y="410" type="line"/>
      <point x="267" y="453" type="line"/>
      <point x="196" y="453" type="line"/>
      <point x="196" y="245" type="line"/>
      <point x="267" y="245" type="line"/>
      <point x="267" y="288" type="line"/>
      <point x="650" y="288" type="line"/>
      <point x="650" y="245" type="line"/>
      <point x="721" y="245" type="line"/>
    </contour>
  </outline>
</glyph>
<glyph name="Pi" format="2">
  <advance width="1064"/>
  <unicode hex="03A0"/>
  <outline>
    <contour>
      <point x="886" y="619" type="line"/>
      <point x="992" y="619" type="line"/>
      <point x="992" y="679" type="line"/>
      <point x="71" y="679" type="line"/>
      <point x="71" y="619" type="line"/>
      <point x="177" y="619" type="line"/>
      <point x="177" y="60" type="line"/>
      <point x="71" y="60" type="line"/>
      <point x="71" y="0" type="line"/>
      <point x="111" y="2"/>
      <point x="239" y="4"/>
      <point x="253" y="4" type="curve" smooth="yes"/>
      <point x="258" y="4"/>
      <point x="392" y="3"/>
      <point x="436" y="0" type="curve"/>
      <point x="436" y="60" type="line"/>
      <point x="330" y="60" type="line"/>
      <point x="330" y="619" type="line"/>
      <point x="733" y="619" type="line"/>
      <point x="733" y="60" type="line"/>
      <point x="627" y="60" type="line"/>
      <point x="627" y="0" type="line"/>
      <point x="667" y="2"/>
      <point x="795" y="4"/>
      <point x="809" y="4" type="curve" smooth="yes"/>
      <point x="814" y="4"/>
      <point x="948" y="3"/>
      <point x="992" y="0" type="curve"/>
      <point x="992" y="60" type="line"/>
      <point x="886" y="60" type="line"/>
    </contour>
  </outline>
</glyph>
<glyph name="Sigma" format="2">
  <advance width="993"/>
  <unicode hex="03A3"/>
  <outline>
    <contour>
      <point x="563" y="319" type="line" smooth="yes"/>
      <point x="575" y="329"/>
      <point x="579" y="332"/>
      <point x="579" y="343" type="curve" smooth="yes"/>
      <point x="579" y="346"/>
      <point x="579" y="354"/>
      <point x="568" y="365" type="curve" smooth="yes"/>
      <point x="311" y="626" type="line"/>
      <point x="547" y="626" type="line" smooth="yes"/>
      <point x="679" y="626"/>
      <point x="809" y="619"/>
      <point x="837" y="459" type="curve"/>
      <point x="908" y="459" type="line"/>
      <point x="872" y="686" type="line"/>
      <point x="120" y="686" type="line" smooth="yes"/>
      <point x="100" y="686"/>
      <point x="84" y="686"/>
      <point x="84" y="656" type="curve" smooth="yes"/>
      <point x="84" y="642"/>
      <point x="84" y="639"/>
      <point x="97" y="626" type="curve" smooth="yes"/>
      <point x="413" y="303" type="line"/>
      <point x="98" y="45" type="line" smooth="yes"/>
      <point x="90" y="38"/>
      <point x="84" y="34"/>
      <point x="84" y="23" type="curve" smooth="yes"/>
      <point x="84" y="0"/>
      <point x="106" y="0"/>
      <point x="120" y="0" type="curve" smooth="yes"/>
      <point x="872" y="0" type="line"/>
      <point x="908" y="245" type="line"/>
      <point x="837" y="245" type="line"/>
      <point x="825" y="167"/>
      <point x="779" y="122"/>
      <point x="740" y="103" type="curve" smooth="yes"/>
      <point x="688" y="78"/>
      <point x="564" y="78"/>
      <point x="554" y="78" type="curve" smooth="yes"/>
      <point x="269" y="78" type="line"/>
    </contour>
  </outline>
</glyph>
<glyph name="Phi" format="2">
  <advance width="993"/>
  <unicode hex="03A6"/>
  <outline>
    <contour>
      <point x="691" y="626" type="line"/>
      <point x="691" y="686" type="line"/>
      <point x="642" y="682"/>
      <point x="542" y="682"/>
      <point x="489" y="682" type="curve" smooth="yes"/>
      <point x="436" y="682"/>
      <point x="336" y="682"/>
      <point x="287" y="686" type="curve"/>
      <point x="287" y="626" type="line"/>
      <point x="420" y="626" type="line"/>
      <point x="420" y="521" type="line"/>
      <point x="225" y="511"/>
      <point x="84" y="443"/>
      <point x="84" y="343" type="curve" smooth="yes"/>
      <point x="84" y="243"/>
      <point x="226" y="175"/>
      <point x="420" y="165" type="curve"/>
      <point x="420" y="60" type="line"/>
      <point x="287" y="60" type="line"/>
      <point x="287" y="0" type="line"/>
      <point x="336" y="4"/>
      <point x="436" y="4"/>
      <point x="489" y="4" type="curve" smooth="yes"/>
      <point x="542" y="4"/>
      <point x="642" y="4"/>
      <point x="691" y="0" type="curve"/>
      <point x="691" y="60" type="line"/>
      <point x="558" y="60" type="line"/>
      <point x="558" y="164" type="line"/>
      <point x="787" y="175"/>
      <point x="908" y="251"/>
      <point x="908" y="343" type="curve" smooth="yes"/>
      <point x="908" y="434"/>
      <point x="787" y="511"/>
      <point x="558" y="522" type="curve"/>
      <point x="558" y="626" type="line"/>
    </contour>
    <contour>
      <point x="420" y="216" type="line"/>
      <point x="321" y="221"/>
      <point x="244" y="251"/>
      <point x="244" y="343" type="curve" smooth="yes"/>
      <point x="244" y="436"/>
      <point x="323" y="465"/>
      <point x="420" y="470" type="curve"/>
    </contour>
    <contour>
      <point x="558" y="471" type="line"/>
      <point x="667" y="467"/>
      <point x="748" y="438"/>
      <point x="748" y="343" type="curve" smooth="yes"/>
      <point x="748" y="247"/>
      <point x="666" y="219"/>
      <point x="558" y="215" type="curve"/>
    </contour>
  </outline>
</glyph>
<glyph name="Psi" format="2">
  <advance width="1068"/>
  <unicode hex="03A8"/>
  <outline>
    <contour>
      <point x="595" y="626" type="line"/>
      <point x="728" y="626" type="line"/>
      <point x="728" y="686" type="line"/>
      <point x="679" y="682"/>
      <point x="579" y="682"/>
      <point x="526" y="682" type="curve" smooth="yes"/>
      <point x="473" y="682"/>
      <point x="373" y="682"/>
      <point x="324" y="686" type="curve"/>
      <point x="324" y="626" type="line"/>
      <point x="457" y="626" type="line"/>
      <point x="457" y="219" type="line"/>
      <point x="354" y="236"/>
      <point x="305" y="304"/>
      <point x="303" y="400" type="curve" smooth="yes"/>
      <point x="302" y="481"/>
      <point x="270" y="542"/>
      <point x="191" y="542" type="curve" smooth="yes"/>
      <point x="120" y="542" type="line" smooth="yes"/>
      <point x="104" y="542"/>
      <point x="84" y="542"/>
      <point x="84" y="516" type="curve" smooth="yes"/>
      <point x="84" y="493"/>
      <point x="103" y="492"/>
      <point x="108" y="491" type="curve"/>
      <point x="163" y="486"/>
      <point x="164" y="425"/>
      <point x="165" y="398" type="curve" smooth="yes"/>
      <point x="165" y="389"/>
      <point x="168" y="290"/>
      <point x="256" y="226" type="curve" smooth="yes"/>
      <point x="322" y="179"/>
      <point x="413" y="168"/>
      <point x="457" y="165" type="curve"/>
      <point x="457" y="60" type="line"/>
      <point x="324" y="60" type="line"/>
      <point x="324" y="0" type="line"/>
      <point x="373" y="4"/>
      <point x="473" y="4"/>
      <point x="526" y="4" type="curve" smooth="yes"/>
      <point x="579" y="4"/>
      <point x="679" y="4"/>
      <point x="728" y="0" type="curve"/>
      <point x="728" y="60" type="line"/>
      <point x="595" y="60" type="line"/>
      <point x="595" y="165" type="line"/>
      <point x="669" y="170"/>
      <point x="739" y="183"/>
      <point x="803" y="223" type="curve" smooth="yes"/>
      <point x="889" y="279"/>
      <point x="901" y="373"/>
      <point x="902" y="399" type="curve" smooth="yes"/>
      <point x="903" y="422"/>
      <point x="904" y="485"/>
      <point x="956" y="491" type="curve" smooth="yes"/>
      <point x="967" y="492"/>
      <point x="983" y="494"/>
      <point x="983" y="516" type="curve" smooth="yes"/>
      <point x="983" y="542"/>
      <point x="964" y="542"/>
      <point x="947" y="542" type="curve" smooth="yes"/>
      <point x="876" y="542" type="line" smooth="yes"/>
      <point x="799" y="542"/>
      <point x="766" y="486"/>
      <point x="764" y="398" type="curve" smooth="yes"/>
      <point x="764" y="386"/>
      <point x="761" y="324"/>
      <point x="721" y="278" type="curve" smooth="yes"/>
      <point x="706" y="261"/>
      <point x="672" y="229"/>
      <point x="595" y="219" type="curve"/>
    </contour>
  </outline>
</glyph>
<glyph name="quoteleft" format="2">
  <advance width="393"/>
  <unicode hex="2018"/>
  <outline>
    <contour>
      <point x="146" y="485" type="curve"/>
      <point x="148" y="502"/>
      <point x="157" y="586"/>
      <point x="244" y="646" type="curve" smooth="yes"/>
      <point x="253" y="652"/>
      <point x="258" y="655"/>
      <point x="258" y="667" type="curve" smooth="yes"/>
      <point x="258" y="679"/>
      <point x="243" y="694"/>
      <point x="231" y="694" type="curve" smooth="yes"/>
      <point x="211" y="694"/>
      <point x="94" y="608"/>
      <point x="94" y="465" type="curve" smooth="yes"/>
      <point x="94" y="388"/>
      <point x="138" y="333"/>
      <point x="197" y="333" type="curve" smooth="yes"/>
      <point x="247" y="333"/>
      <point x="280" y="371"/>
      <point x="280" y="416" type="curve" smooth="yes"/>
      <point x="280" y="462"/>
      <point x="247" y="500"/>
      <point x="196" y="500" type="curve" smooth="yes"/>
      <point x="178" y="500"/>
      <point x="160" y="496"/>
    </contour>
  </outline>
</glyph>
<glyph name="quoteright" format="2">
  <advance width="393"/>
  <unicode hex="2019"/>
  <outline>
    <contour>
      <point x="247" y="542" type="curve"/>
      <point x="245" y="525"/>
      <point x="236" y="441"/>
      <point x="149" y="381" type="curve" smooth="yes"/>
      <point x="140" y="375"/>
      <point x="135" y="372"/>
      <point x="135" y="360" type="curve" smooth="yes"/>
      <point x="135" y="348"/>
      <point x="150" y="333"/>
      <point x="162" y="333" type="curve" smooth="yes"/>
      <point x="182" y="333"/>
      <point x="299" y="419"/>
      <point x="299" y="562" type="curve" smooth="yes"/>
      <point x="299" y="639"/>
      <point x="255" y="694"/>
      <point x="196" y="694" type="curve" smooth="yes"/>
      <point x="146" y="694"/>
      <point x="113" y="656"/>
      <point x="113" y="611" type="curve" smooth="yes"/>
      <point x="113" y="565"/>
      <point x="146" y="527"/>
      <point x="197" y="527" type="curve" smooth="yes"/>
      <point x="215" y="527"/>
      <point x="233" y="531"/>
    </contour>
  </outline>
</glyph>
<glyph name="quotedblleft" format="2">
  <advance width="710"/>
  <unicode hex="201C"/>
  <outline>
    <contour>
      <point x="292" y="333" type="curve" smooth="yes"/>
      <point x="342" y="333"/>
      <point x="375" y="371"/>
      <point x="375" y="416" type="curve" smooth="yes"/>
      <point x="375" y="462"/>
      <point x="342" y="500"/>
      <point x="291" y="500" type="curve" smooth="yes"/>
      <point x="273" y="500"/>
      <point x="255" y="496"/>
      <point x="241" y="485" type="curve"/>
      <point x="243" y="502"/>
      <point x="252" y="586"/>
      <point x="339" y="646" type="curve" smooth="yes"/>
      <point x="348" y="652"/>
      <point x="353" y="655"/>
      <point x="353" y="667" type="curve" smooth="yes"/>
      <point x="353" y="679"/>
      <point x="338" y="694"/>
      <point x="326" y="694" type="curve" smooth="yes"/>
      <point x="306" y="694"/>
      <point x="189" y="608"/>
      <point x="189" y="465" type="curve" smooth="yes"/>
      <point x="189" y="388"/>
      <point x="233" y="333"/>
    </contour>
    <contour>
      <point x="571" y="333" type="curve" smooth="yes"/>
      <point x="621" y="333"/>
      <point x="654" y="371"/>
      <point x="654" y="416" type="curve" smooth="yes"/>
      <point x="654" y="462"/>
      <point x="621" y="500"/>
      <point x="570" y="500" type="curve" smooth="yes"/>
      <point x="552" y="500"/>
      <point x="534" y="496"/>
      <point x="520" y="485" type="curve"/>
      <point x="522" y="502"/>
      <point x="531" y="586"/>
      <point x="618" y="646" type="curve" smooth="yes"/>
      <point x="627" y="652"/>
      <point x="632" y="655"/>
      <point x="632" y="667" type="curve" smooth="yes"/>
      <point x="632" y="679"/>
      <point x="617" y="694"/>
      <point x="605" y="694" type="curve" smooth="yes"/>
      <point x="585" y="694"/>
      <point x="468" y="608"/>
      <point x="468" y="465" type="curve" smooth="yes"/>
      <point x="468" y="388"/>
      <point x="512" y="333"/>
    </contour>
  </outline>
</glyph>
